<?xml version="1.0" encoding="UTF-8"?>
<svg xmlns="http://www.w3.org/2000/svg" version="1.1" viewBox="0 0 512 512">
  <!-- Generator: Adobe Illustrator 30.3.0, SVG Export Plug-In . SVG Version: 2.1.3 Build 182)  -->
  <defs>
    <style>
      .st0 {
        fill: #fff;
      }

      .st1 {
        fill: #ba4a2b;
      }
    </style>
  </defs>
  <g id="Layer_2">
    <rect class="st0" width="512" height="512" rx="49.08" ry="49.08"/>
  </g>
  <g id="Layer_1">
    <path class="st1" d="M188.29,289.63c-22.06,0-43.51,0-65.31,0V35.65c3.62-1.05,7.25-1.13,10.89-1.14,74.64,0,149.28,0,223.92-.01,10.03,0,20.07.09,30.1-.06,4.59-.07,6.46,1.45,6.45,6.42-.12,81-.08,161.99.01,242.99,0,4.15-1.25,5.99-5.6,5.83-18.23-.66-36.45.94-54.71.21-15.55-.62-31.15.34-46.73.3-32.8-.08-65.6-.36-99.02-.56M135.65,187.6c0,26.25,0,52.51.03,78.76.01,9.83.27,10.07,9.96,10.07,75.48-.01,150.95-.03,226.43-.05q9.14,0,9.15-9.13c.01-69.94.02-139.88.02-209.82,0-9.4,0-9.43-9.71-9.43-75.48-.03-150.95-.04-226.43-.06-9.22,0-9.46.26-9.46,9.84,0,42.87,0,85.73,0,129.83Z"/>
    <path d="M400.89,382.68c0-15.78.11-30.95-.1-46.12-.06-4.52,1.57-5.69,6-6.17,7.75-.83,12.73,1.66,17.37,8.1,10.14,14.11,21.22,27.54,33.32,41.04,0-2.08,0-4.16,0-6.24,0-12.3.1-24.6-.05-36.9-.05-4.2,1.52-5.85,5.77-5.81,16.07.12,13.37-1.04,13.47,12.74.14,21.11-.1,42.23.13,63.34.05,5.03-1.56,6.64-6.61,6.92-7.42.42-12.45-1.73-17-8.05-10.25-14.24-21.46-27.8-33.39-43.06,0,15.17.07,28.58-.06,41.99-.03,2.88,1.44,7.02-2.27,8.16-4.85,1.5-10.16,1.51-15.06-.38-2.02-.78-1.45-3.2-1.47-4.98-.06-7.99-.03-15.99-.03-24.6Z"/>
    <path d="M223.45,398.56c0-22.88,0-45.16,0-68.16,16,1.03,31.64-1.93,46.9,1.73,19.05,4.58,24.17,23.81,10.02,38.12,7.91,4.73,12.18,11.4,11.83,20.95-.31,8.55-4.13,14.31-11.63,17.92-7.19,3.46-14.96,4.17-22.74,4.26-9.82.11-19.65-.44-29.47-.23-4.33.09-5.37-1.54-5-5.4.27-2.84.08-5.73.09-9.19M273.35,384.62c-5.04-7.33-12.75-5.38-19.68-5.36-13.32.04-12.06-2.65-12.12,13.37-.01,3.13,1.35,4.44,4.45,4.39,5.94-.1,11.9.24,17.82-.14,7.85-.51,10.56-3.89,9.54-12.27M268.25,350.06c-3.86-4.02-9.09-3.24-13.84-3.62-12.19-.97-14.48,1.67-12.81,13.6.29,2.07.86,3.7,3.18,3.66,6.29-.1,12.67,1.05,18.86-.84,6.56-2,8.03-5.55,4.62-12.8Z"/>
    <path d="M177.67,331.05c11.99,1.91,19.84,8.06,22.51,19.53,3.4,14.62-1.19,26.24-15.29,34.15,6.26,9.2,12.2,17.91,18.16,26.66-9.05,4.91-20.42,2.31-25.4-5.37-3.35-5.16-6.76-10.27-10.11-15.42-1.4-2.15-3.01-3.6-5.84-3.87-10.55-.99-11.14-.55-11.14,10,0,3.48-.27,6.99.05,10.45.45,5.03-1.92,6.28-6.5,6.31-11.6.07-11.61.23-11.61-11.1,0-21.52.15-43.05-.12-64.57-.07-5.57,1.56-7.58,7.27-7.37,12.49.45,24.99.33,38.02.58M150.56,356.36c0,2.45.21,4.92-.05,7.34-.52,4.8,1.39,6.67,6.24,6.34,4.88-.33,9.8.11,14.69-.15,6.92-.36,10.72-4.59,10.73-11.5.01-6.6-3.59-10.51-10.5-10.94-4.47-.28-9.02.21-13.46-.27-6.4-.7-8.62,2-7.65,9.18Z"/>
    <path d="M41.16,400.37c-4.41-6.99-6.03-14.19-5.92-22,.2-13.72.24-27.45-.02-41.17-.1-5.17,1.83-6.76,6.83-6.65,14.06.32,12.34-1.07,12.43,12.02.08,12.08-.08,24.17.06,36.25.12,10.59,7.29,18.16,16.85,18.13,9.76-.03,16.79-7.32,16.92-18.04.18-13.72.22-27.45-.06-41.17-.11-5.21,1.33-7.35,6.89-7.21,14.27.37,12.22-.93,12.33,12.07.11,12.7.08,25.4,0,38.1-.12,18.66-13.69,32.59-32.28,33.39-13.28.58-25.37-1.69-34.03-13.72Z"/>
    <path d="M369.13,353c-1.69,2.61-2.93,5.02-4.62,7.06-11.04,13.25-15.98,28.25-13.43,45.48.93,6.23-1.71,8.31-7.91,8.1-10.07-.33-10.66-.06-9.94-10.11,1.04-14.3-1.98-26.81-10.84-38.5-7.87-10.38-14.08-22.01-21.46-33.78,7.01-1.14,13.26-.64,19.47-.49,2.94.07,3.86,2.81,5.1,4.84,5.13,8.34,10.17,16.75,15.14,24.98,3.62-.52,4.21-3.26,5.44-5.21,4.17-6.58,8.33-13.18,12.18-19.95,2.08-3.65,4.7-5.22,8.94-4.91,4.66.34,9.37.08,15.31.08-3.79,8.5-8.99,14.99-13.41,22.41Z"/>
    <path class="st1" d="M82.63,453.19c-.06,4.84-1.38,8.87,1.34,13.46,2.56,4.32-1.32,9.35-6.84,9.78-5.44.43-10.94.09-16.8.09-1.4-9.09-.28-17.81-.57-26.49-.02-.67.51-1.6,1.08-2.02,3.82-2.81,18.52.41,21.78,5.17M72.83,465.3c-.82,0-1.64-.04-2.46.01-2.02.12-4.49-.14-4.56,2.81-.07,3.02,2.39,2.78,4.43,2.87,1.02.05,2.05.06,3.08.02,1.85-.08,4.1,0,4.5-2.27.51-2.91-1.96-3.07-4.99-3.44M76.55,456.86c-.96-5.89-5.51-3.27-8.69-3.48-1.62-.1-2.54,1.65-1.98,3.16,1.41,3.79,4.73,2.25,7.39,2.21.93-.01,1.84-.75,3.27-1.89Z"/>
    <path class="st1" d="M372.56,467.64c-5.93,9.67-13.36,12.22-21.91,7.9-6.49-3.28-9.5-11.76-6.77-19.09,2.5-6.72,9.51-10.69,16.76-9.49,8.04,1.34,12.55,6.31,12.66,14.13.03,2.03-.34,4.06-.74,6.55M351.35,467.78c5.43,4.44,10.96,4.38,14.18-.28,2.8-4.05,2.52-8.24-.79-11.69-3.34-3.47-7.79-4.04-11.61-1.12-4.11,3.15-5.33,7.53-1.78,13.09Z"/>
    <path class="st1" d="M290.14,467.21c.83,5.41-2.51,7.32-6.3,8.83-6.47,2.57-12.55,1.91-17.71-2.92-5.98-5.6-5.99-15.83-.3-21.66,6.05-6.19,15.49-6.22,21.89.02-1.12,4.55-3.74,3.34-6.96,2.19-5.37-1.92-10.55.68-11.96,5.46-1.51,5.1,1.64,10.88,6.77,12.01,3.67.81,6.87.21,8.09-3.97-.42-.55-.6-.97-.92-1.17-2.01-1.25-6.42-.12-5.55-4.11.75-3.44,4.46-1.79,6.92-2.06,1.58-.17,3.21.15,4.69.24,1.75,2.19.81,4.59,1.34,7.14Z"/>
    <path class="st1" d="M199.6,459.62q.4-13.06,13.07-12.07c8.38.65,13.6,6.08,13.81,14.34.17,6.93-5.31,13.31-12.52,14.58-11.52,2.02-13.65.41-14.32-10.81-.11-1.84-.07-3.68-.05-6.03M214.53,453.95c-3.17-.51-7.28-3.09-8.36,2.29-.74,3.73-.19,7.73-.13,11.61.04,2.38,1.64,3.02,3.73,3.05,4.25.06,7.77-1.34,9.39-5.47,1.8-4.59.52-8.4-4.63-11.49Z"/>
    <path class="st1" d="M327.14,450.51c4.58,6.55,2.34,11.53-2.61,15.67.14,4,4.52,5.69,4.33,9.61-3.29,1.63-5.86.9-7.88-2.1-1.03-1.53-2.1-3.02-3.2-4.5-1.17-1.58-2.67-2.59-4.73-2.08-2.32.57-2.3,2.51-2.48,4.39-.2,2.08.54,5.05-3.04,4.78-3.34-.25-2.66-3.13-2.7-5.22-.11-6.14-.1-12.27-.02-18.41.02-1.96-.32-4.83,2.47-4.82,6.56.03,13.5-2.41,19.86,2.68M320.53,453.6c-2.23-.12-4.5-.55-6.68-.28-3.86.48-4.08,3.72-2.62,5.96,2.32,3.58,6.38,2.33,9.44,1.12,3.12-1.24,3.24-3.91-.14-6.8Z"/>
    <path class="st1" d="M414.15,460.81c1.18,14.91-10.59,18.74-18.09,15.68-3.94-1.61-6.78-4.41-7.19-8.47-.57-5.67-.27-11.44-.26-17.17,0-1.85.8-3.17,2.95-3.08,2.22.09,2.6,1.7,2.63,3.41.09,3.89.01,7.78.11,11.67.1,4.38,1.86,7.72,6.62,8.11,4.91.41,6.25-3.09,6.57-7.1.41-5.09.62-10.2.93-15.47,3.71-1.88,5.86-.98,5.99,3.32.09,2.85-.13,5.71-.26,9.1Z"/>
    <path class="st1" d="M99.46,468.38c-1.01-5.77-1.22-11.09-.92-16.42.12-2.07.34-4.24,3.25-4.27,2.94-.03,3.14,2.04,3.17,4.19.05,3.89-.07,7.79.11,11.68.19,4.09,1.91,7.24,6.46,7.53,4.69.3,6.66-2.91,7.1-6.87.47-4.26.24-8.59.33-12.89.05-2.02.52-3.72,3.1-3.53,2.23.16,2.52,1.81,2.53,3.5.04,5.12.47,10.3-.14,15.34-.7,5.78-4.17,9.62-10.25,10.66-6.31,1.09-11.08-1.61-14.74-8.93Z"/>
    <path class="st1" d="M450.96,451.22c4.07,9.25,1.18,15.03-8.07,16.29-4.04.55-7.35.96-7,6.19.11,1.65-1.02,2.57-2.74,2.61-2.26.05-2.75-1.48-2.76-3.24-.04-8.34-.02-16.68-.02-25.75,7.18,1.13,14.37-2.28,20.58,3.9M443.33,461.18c2.54-1.26,4.02-3.16,2.14-5.8-1.74-2.44-4.66-2.68-7.21-1.79-3.1,1.08-2.44,4.14-1.82,6.3.95,3.35,3.7,2.29,6.9,1.28Z"/>
    <path class="st1" d="M171.08,467.03c.47,3.51,2.63,3.84,5.03,3.86,2.25.02,4.49.04,6.74.14,1.58.07,2.79.74,2.91,2.5.14,2.12-1.19,2.95-3.04,2.97-4.9.06-9.8.04-14.7.01-2.65-.01-3.47-1.64-3.47-4.01.01-6.94-.03-13.89.02-20.83.01-1.85.13-3.81,2.76-3.94,2.92-.14,3.36,2.01,3.45,4.05.22,4.89.19,9.8.31,15.24Z"/>
    <path class="st1" d="M141.1,462.67c.03-4.29.03-7.96.1-11.64.03-1.77.55-3.2,2.72-3.33,2.23-.14,3.7.8,3.73,3.02.11,7.56.1,15.11.04,22.67-.02,1.87-1.11,2.99-3.1,3.06-2.33.08-3.35-1.18-3.39-3.36-.06-3.27-.08-6.54-.11-10.41Z"/>
    <path class="st1" d="M349.51,209.89c-8.52,24.8-31.33,41.02-58.75,41.44-22.55.35-45.12.34-67.68-.02-27.66-.44-49.99-16.6-56.38-40.25-1.33-4.93-2.19-9.97-2.19-15.13.01-37.53.11-75.06-.12-112.59-.04-5.88,1.68-7.77,7.64-7.7,18.98.2,18.98-.02,18.98,19.03,0,33.02-.03,66.04.02,99.06.03,21.53,11.31,33.39,32.64,33.63,22.35.26,44.72.42,67.06-.22,22.82-.65,38.33-21.87,32.73-43.66-2.87-11.19-10.25-17.73-21.95-18.03-16.19-.42-32.4-.07-48.6-.13-4.71-.02-6.49,2.05-6.37,6.78.25,9.63-.06,19.28.15,28.91.1,4.44-1.39,6.42-6.01,6.12-4.08-.27-8.22-.31-12.3.02-5.42.44-7.14-1.8-7.09-7.11.2-21.53.06-43.07.06-64.6,0-17.64.14-35.28-.04-52.91-.05-4.91,1.41-6.91,6.62-6.87,25.22.21,50.48-.58,75.67.33,19.45.7,32.85,9.67,38.96,25.11,7.28,18.37,3.85,36.43-9.25,49.31-.43.42-.75.95-1.65,2.09,20.08,14.4,22.18,34.7,17.86,57.38M286.13,100c-10.65,0-21.29.1-31.94-.02-5.3-.06-7.89,1.79-7.69,7.56.33,9.41.25,18.83.04,28.25-.1,4.6,1.3,6.67,6.28,6.6,14.74-.23,29.48-.07,44.22-.08,5.31,0,10.13-1.85,14.31-4.87,7.7-5.54,9.53-13.6,8.01-22.4-1.41-8.17-6.93-12.56-14.89-14.33-5.7-1.26-11.42-.38-18.34-.71Z"/>
  </g>
</svg>