<?xml version="1.0" encoding="UTF-8"?>
<svg xmlns="http://www.w3.org/2000/svg" version="1.1" viewBox="0 0 512 512">
  <!-- Generator: Adobe Illustrator 30.3.0, SVG Export Plug-In . SVG Version: 2.1.3 Build 182)  -->
  <defs>
    <style>
      .st0 {
        fill: #fff;
      }

      .st1 {
        fill: #ba4a2b;
      }
    </style>
  </defs>
  <g id="Layer_2">
    <g>
      <path class="st0" d="M56.95.5h398.09c31.16,0,56.45,25.3,56.45,56.45v398.09c0,31.16-25.3,56.45-56.45,56.45H56.95c-31.16,0-56.45-25.3-56.45-56.45V56.95C.5,25.8,25.8.5,56.95.5Z"/>
      <path d="M455.05,1c30.85,0,55.95,25.1,55.95,55.95v398.09c0,30.85-25.1,55.95-55.95,55.95H56.95c-30.85,0-55.95-25.1-55.95-55.95V56.95C1,26.1,26.1,1,56.95,1h398.09M455.05,0H56.95C25.5,0,0,25.5,0,56.95v398.09c0,31.46,25.5,56.95,56.95,56.95h398.09c31.46,0,56.95-25.5,56.95-56.95V56.95c0-31.46-25.5-56.95-56.95-56.95h0Z"/>
    </g>
  </g>
  <g id="Layer_1">
    <path class="st1" d="M150.44,446.98c-33.09,0-65.26,0-97.97,0V66c5.42-1.58,10.88-1.7,16.34-1.7,111.96-.01,223.92-.01,335.88-.02,15.05,0,30.1.13,45.15-.09,6.88-.1,9.68,2.18,9.67,9.64-.18,121.49-.13,242.99.02,364.48,0,6.22-1.87,8.98-8.41,8.74-27.35-.99-54.67,1.4-82.07.32-23.32-.93-46.72.51-70.09.45-49.2-.12-98.4-.54-148.53-.84M71.48,293.93c.01,39.38,0,78.76.05,118.14.02,14.74.41,15.1,14.94,15.1,113.22-.02,226.43-.04,339.65-.07q13.71,0,13.73-13.7c.02-104.91.03-209.82.04-314.73,0-14.11,0-14.15-14.57-14.15-113.21-.04-226.43-.07-339.64-.09-13.82,0-14.18.39-14.19,14.76,0,64.3,0,128.6,0,194.74Z"/>
    <path class="st1" d="M392.26,327.37c-12.77,37.21-47,61.52-88.12,62.16-33.83.52-67.69.51-101.52-.03-41.48-.67-74.99-24.9-84.57-60.37-2-7.39-3.29-14.96-3.28-22.7.02-56.3.17-112.6-.18-168.89-.05-8.82,2.51-11.65,11.46-11.55,28.47.31,28.47-.02,28.48,28.55,0,49.53-.04,99.06.02,148.59.04,32.3,16.97,50.08,48.95,50.45,33.53.39,67.08.63,100.58-.33,34.23-.98,57.49-32.8,49.09-65.48-4.31-16.79-15.37-26.59-32.92-27.04-24.29-.63-48.6-.1-72.9-.2-7.07-.03-9.74,3.08-9.55,10.17.38,14.45-.09,28.92.23,43.37.15,6.66-2.09,9.64-9.02,9.18-6.13-.4-12.33-.46-18.44.04-8.13.66-10.72-2.7-10.64-10.66.3-32.3.09-64.6.09-96.9,0-26.46.21-52.92-.06-79.37-.08-7.37,2.12-10.37,9.94-10.31,37.84.31,75.71-.87,113.5.49,29.17,1.05,49.27,14.51,58.44,37.66,10.92,27.56,5.78,54.65-13.87,73.97-.64.63-1.13,1.42-2.48,3.14,30.12,21.6,33.27,52.05,26.79,86.07M297.19,162.53c-15.97,0-31.94.15-47.9-.04-7.95-.09-11.83,2.69-11.53,11.34.5,14.11.37,28.25.06,42.37-.15,6.91,1.95,10.01,9.42,9.9,22.1-.34,44.22-.11,66.33-.12,7.97,0,15.19-2.78,21.47-7.3,11.55-8.32,14.29-20.4,12.01-33.6-2.12-12.26-10.4-18.85-22.34-21.5-8.54-1.9-17.13-.57-27.52-1.06Z"/>
  </g>
</svg>