<svg version="1.1" id="Layer_1" xmlns="http://www.w3.org/2000/svg" xmlns:xlink="http://www.w3.org/1999/xlink" x="0px" y="0px"
	 width="100%" viewBox="0 0 624 624" enable-background="new 0 0 624 624" xml:space="preserve">
<path fill="#000000" opacity="1.000000" stroke="none" 
	d="
M258.999939,342.398682 
	C241.075409,342.399170 223.650894,342.399170 205.932327,342.399170 
	C205.932327,273.194641 205.932327,204.775925 205.932327,136.036346 
	C208.870804,135.181854 211.825195,135.114304 214.783188,135.114029 
	C275.428070,135.108582 336.072968,135.108475 396.717865,135.105698 
	C404.870575,135.105331 413.024475,135.177139 421.175415,135.055191 
	C424.903992,134.999451 426.421387,136.237152 426.415527,140.275101 
	C426.319946,206.084534 426.347717,271.894196 426.425476,337.703674 
	C426.429443,341.071869 425.410065,342.567322 421.872131,342.439453 
	C407.058228,341.904114 392.260071,343.200409 377.419464,342.610321 
	C364.787781,342.108002 352.110382,342.884766 339.453796,342.852844 
	C312.802307,342.785614 286.151215,342.559235 258.999939,342.398682 
M216.229279,259.500000 
	C216.236038,280.830231 216.232437,302.160492 216.254929,323.490723 
	C216.263351,331.475891 216.475616,331.670166 224.348175,331.668854 
	C285.673065,331.658722 346.997986,331.646606 408.322876,331.631226 
	C415.750336,331.629364 415.759766,331.618683 415.760925,324.209686 
	C415.769745,267.384094 415.774506,210.558517 415.780914,153.732925 
	C415.781769,146.091888 415.782745,146.070770 407.890625,146.068008 
	C346.565857,146.046524 285.241089,146.032181 223.916306,146.020538 
	C216.428421,146.019119 216.233047,146.230988 216.232468,154.014328 
	C216.229889,188.842880 216.230179,223.671448 216.229279,259.500000 
z"/>
<path fill="#000000" opacity="1.000000" stroke="none" 
	d="
M431.739319,417.999939 
	C431.733490,405.175385 431.829620,392.849426 431.660980,380.527100 
	C431.610687,376.853302 432.933044,375.900208 436.535339,375.515076 
	C442.831238,374.841949 446.880920,376.860352 450.644928,382.095093 
	C458.886292,393.556702 467.888123,404.471497 477.715881,415.444092 
	C477.715881,413.755219 477.715790,412.066345 477.715851,410.377472 
	C477.716125,400.384583 477.796509,390.390717 477.672638,380.399384 
	C477.630280,376.983948 478.906250,375.649109 482.357910,375.675110 
	C495.415527,375.773590 493.222321,374.827484 493.298248,386.025818 
	C493.414520,403.179504 493.219879,420.335632 493.400604,437.488190 
	C493.443634,441.574921 492.132690,442.881744 488.027985,443.114258 
	C482.001007,443.455627 477.912476,441.711548 474.213196,436.573456 
	C465.881042,425.000641 456.777344,413.983398 447.086945,401.587982 
	C447.086945,413.911407 447.146057,424.807800 447.039856,435.702576 
	C447.017059,438.038635 448.211334,441.403625 445.198059,442.335754 
	C441.255707,443.555237 436.941742,443.563660 432.958130,442.029968 
	C431.314087,441.396973 431.777130,439.428864 431.766205,437.985901 
	C431.717285,431.490906 431.741852,424.995300 431.739319,417.999939 
z"/>
<path fill="#000000" opacity="1.000000" stroke="none" 
	d="
M287.568176,430.903870 
	C287.566681,412.314423 287.566681,394.209625 287.566681,375.527130 
	C300.569672,376.360382 313.272858,373.957672 325.673035,376.936707 
	C341.153717,380.655823 345.313538,396.280182 333.814270,407.906738 
	C340.239075,411.749176 343.713013,417.165802 343.429199,424.929016 
	C343.175415,431.872498 340.077545,436.556946 333.980682,439.486267 
	C328.136444,442.294189 321.826782,442.873688 315.500671,442.944641 
	C307.521576,443.034180 299.534485,442.585266 291.559235,442.757812 
	C288.039032,442.833923 287.196808,441.510345 287.498108,438.372040 
	C287.719788,436.063202 287.559662,433.717743 287.568176,430.903870 
M328.112213,419.580353 
	C324.020111,413.626007 317.750183,415.212524 312.119232,415.228210 
	C301.293671,415.258331 302.319397,413.075745 302.272034,426.095367 
	C302.262787,428.642548 303.371307,429.703033 305.884247,429.662872 
	C310.710846,429.585663 315.554962,429.860229 320.363007,429.546997 
	C326.741943,429.131470 328.946259,426.383789 328.112213,419.580353 
M323.966003,391.493896 
	C320.825714,388.229431 316.577911,388.860779 312.723511,388.553406 
	C302.820892,387.763641 300.957489,389.910065 302.312225,399.601135 
	C302.547150,401.281433 303.013916,402.608856 304.895569,402.578796 
	C310.008820,402.497101 315.189789,403.431274 320.216187,401.896362 
	C325.543610,400.269562 326.737579,397.389252 323.966003,391.493896 
z"/>
<path fill="#000000" opacity="1.000000" stroke="none" 
	d="
M250.370804,376.051270 
	C260.116730,377.605530 266.492218,382.600677 268.657288,391.920776 
	C271.416870,403.799866 267.690857,413.237183 256.237183,419.670319 
	C261.326508,427.142792 266.149750,434.224548 270.990326,441.331757 
	C263.640808,445.318542 254.401749,443.205109 250.353867,436.971680 
	C247.633499,432.782562 244.863083,428.625916 242.137695,424.440033 
	C241.002411,422.696381 239.694962,421.514893 237.392899,421.298981 
	C228.822830,420.495209 228.342606,420.854187 228.341080,429.427826 
	C228.340576,432.259094 228.125107,435.109161 228.378326,437.917206 
	C228.746689,442.002106 226.820587,443.020813 223.100357,443.043243 
	C213.671890,443.100128 213.669785,443.226196 213.667740,434.023895 
	C213.663879,416.536560 213.793396,399.047577 213.573135,381.563019 
	C213.516159,377.039093 214.844666,375.407166 219.481949,375.575958 
	C229.626602,375.945190 239.788406,375.843628 250.370804,376.051270 
M228.346558,396.613098 
	C228.346069,398.603058 228.520035,400.611786 228.308136,402.578979 
	C227.887619,406.482941 229.433899,407.997742 233.376816,407.733459 
	C237.339371,407.467926 241.340927,407.820618 245.310364,407.613678 
	C250.934021,407.320496 254.016373,403.881866 254.028122,398.266693 
	C254.039352,392.902893 251.112518,389.731293 245.498154,389.375641 
	C241.862488,389.145294 238.173416,389.550232 234.564453,389.156097 
	C229.361923,388.587952 227.561539,390.778015 228.346558,396.613098 
z"/>
<path fill="#000000" opacity="1.000000" stroke="none" 
	d="
M139.451904,432.373169 
	C135.867554,426.695892 134.550049,420.841400 134.641373,414.501740 
	C134.801941,403.353668 134.836670,392.199066 134.627701,381.052795 
	C134.549011,376.855560 136.115494,375.556671 140.173035,375.648346 
	C151.594437,375.906433 150.196823,374.775238 150.270615,385.410706 
	C150.338745,395.229126 150.207672,405.049347 150.322632,414.866882 
	C150.423416,423.473877 156.243973,429.618378 164.011902,429.593536 
	C171.942078,429.568176 177.650208,423.649628 177.761444,414.934387 
	C177.903717,403.785980 177.940689,392.631256 177.710876,381.485657 
	C177.623642,377.255096 178.790359,375.513062 183.312714,375.629974 
	C194.906998,375.929657 193.241257,374.875671 193.329407,385.433929 
	C193.415527,395.751404 193.396393,406.070526 193.331192,416.388306 
	C193.235397,431.546692 182.210129,442.864746 167.104431,443.520935 
	C156.317200,443.989502 146.494629,442.149414 139.451904,432.373169 
z"/>
<path fill="#000000" opacity="1.000000" stroke="none" 
	d="
M405.933655,393.883575 
	C404.557770,396.003113 403.553711,397.965637 402.176971,399.617554 
	C393.207947,410.379211 389.190643,422.570496 391.267914,436.568024 
	C392.019653,441.633392 389.876068,443.320557 384.845062,443.153229 
	C376.666656,442.881226 376.182007,443.103394 376.772827,434.938385 
	C377.613770,423.316650 375.165894,413.157074 367.965179,403.656525 
	C361.573608,395.223633 356.522034,385.775146 350.526398,376.212585 
	C356.219849,375.287872 361.299713,375.694305 366.349548,375.813049 
	C368.739868,375.869232 369.482697,378.093292 370.497345,379.742371 
	C374.668213,386.521179 378.757385,393.350250 382.801941,400.037384 
	C385.746521,399.611267 386.219971,397.386993 387.221985,395.807770 
	C390.613434,390.462585 393.988556,385.099152 397.122101,379.601410 
	C398.812286,376.635986 400.940643,375.362488 404.386230,375.610474 
	C408.173828,375.883118 411.996216,375.672638 416.829132,375.672638 
	C413.749359,382.581451 409.525085,387.852020 405.933655,393.883575 
z"/>
<path fill="#000000" opacity="1.000000" stroke="none" 
	d="
M173.151733,475.289490 
	C173.105042,479.220612 172.031387,482.499237 174.241943,486.229431 
	C176.320633,489.737091 173.165939,493.823059 168.686493,494.176575 
	C164.265839,494.525452 159.796143,494.252777 155.039551,494.252777 
	C153.900162,486.868896 154.813034,479.778107 154.579941,472.731934 
	C154.561829,472.184479 154.997498,471.428589 155.457901,471.089966 
	C158.563995,468.805389 170.507446,471.426758 173.151733,475.289490 
M165.189178,485.127716 
	C164.522781,485.128662 163.854462,485.097382 163.190369,485.136963 
	C161.545380,485.234833 159.544937,485.025024 159.488571,487.423645 
	C159.430878,489.879639 161.431320,489.678864 163.084442,489.754669 
	C163.915970,489.792816 164.751831,489.807129 165.582886,489.769379 
	C167.082703,489.701294 168.917725,489.776276 169.243042,487.923126 
	C169.658661,485.555511 167.650497,485.427094 165.189178,485.127716 
M168.212616,478.273987 
	C167.436249,473.487518 163.738785,475.614105 161.155563,475.449493 
	C159.838791,475.365570 159.094910,476.792389 159.547928,478.013367 
	C160.689835,481.091125 163.387115,479.840576 165.553085,479.809509 
	C166.305664,479.798737 167.049805,479.197357 168.212616,478.273987 
z"/>
<path fill="#000000" opacity="1.000000" stroke="none" 
	d="
M408.715881,487.028839 
	C403.896423,494.885864 397.860291,496.955383 390.915680,493.444183 
	C385.644867,490.779266 383.199493,483.887177 385.413269,477.936249 
	C387.445740,472.472717 393.139557,469.249725 399.029510,470.228638 
	C405.560547,471.314087 409.228943,475.353668 409.317902,481.708313 
	C409.340912,483.355225 409.042786,485.006622 408.715881,487.028839 
M391.485291,487.145294 
	C395.897888,490.755585 400.391235,490.702972 403.004913,486.916290 
	C405.276581,483.625031 405.052979,480.223969 402.361237,477.420746 
	C399.651184,474.598541 396.028595,474.137390 392.930267,476.511749 
	C389.592285,479.069702 388.596893,482.629791 391.485291,487.145294 
z"/>
<path fill="#000000" opacity="1.000000" stroke="none" 
	d="
M341.751007,486.679199 
	C342.422302,491.077332 339.708801,492.629608 336.632874,493.849854 
	C331.377411,495.934784 326.433868,495.403168 322.246552,491.479523 
	C317.389038,486.927887 317.375671,478.620483 322.002777,473.880005 
	C326.915100,468.847321 334.590515,468.828491 339.792450,473.894135 
	C338.880920,477.592621 336.750793,476.611145 334.136871,475.676941 
	C329.771942,474.117035 325.567291,476.229950 324.419189,480.113922 
	C323.193146,484.261719 325.750427,488.951263 329.922882,489.875580 
	C332.907745,490.536835 335.501709,490.045380 336.494781,486.650452 
	C336.151520,486.203766 336.004425,485.860840 335.744568,485.698853 
	C334.112549,484.681702 330.531433,485.598663 331.234619,482.356628 
	C331.840179,479.564667 334.861572,480.900848 336.854431,480.685913 
	C338.138123,480.547485 339.464539,480.805817 340.662750,480.879608 
	C342.088409,482.657715 341.320862,484.612793 341.751007,486.679199 
z"/>
<path fill="#000000" opacity="1.000000" stroke="none" 
	d="
M268.189819,480.516602 
	C268.515839,469.906525 268.515839,469.906555 278.811432,470.706451 
	C285.616516,471.235168 289.862213,475.645111 290.030182,482.359436 
	C290.171051,487.989349 285.715820,493.177643 279.860474,494.202545 
	C270.504333,495.840210 268.770813,494.539520 268.227417,485.416565 
	C268.138550,483.924591 268.170624,482.425446 268.189819,480.516602 
M280.316864,475.912262 
	C277.740967,475.495850 274.398102,473.399353 273.527557,477.774353 
	C272.923950,480.807953 273.369812,484.058960 273.422852,487.211517 
	C273.455444,489.149139 274.751923,489.665436 276.452240,489.690521 
	C279.902802,489.741364 282.763092,488.601868 284.080231,485.247467 
	C285.544006,481.519684 284.501892,478.420349 280.316864,475.912262 
z"/>
<path fill="#000000" opacity="1.000000" stroke="none" 
	d="
M371.818359,473.113403 
	C375.539764,478.432159 373.718140,482.479309 369.698090,485.846863 
	C369.810760,489.100464 373.374237,490.466614 373.216583,493.655029 
	C370.545776,494.979065 368.457977,494.384888 366.815796,491.949127 
	C365.979950,490.709351 365.106293,489.493866 364.216736,488.291809 
	C363.264862,487.005615 362.046844,486.184753 360.372345,486.598877 
	C358.490448,487.064362 358.507416,488.641571 358.360046,490.162323 
	C358.196350,491.851898 358.795685,494.264893 355.888123,494.049316 
	C353.171051,493.847870 353.728577,491.509033 353.697937,489.811951 
	C353.607880,484.827118 353.620361,479.839264 353.679352,474.853607 
	C353.698212,473.259094 353.421448,470.928223 355.682709,470.939941 
	C361.014679,470.967499 366.652161,468.982513 371.818359,473.113403 
M366.441528,475.627716 
	C364.630524,475.533844 362.787170,475.181335 361.015686,475.403076 
	C357.882721,475.795227 357.704041,478.423553 358.885010,480.245453 
	C360.770447,483.154114 364.072327,482.138123 366.553497,481.152802 
	C369.085938,480.147125 369.188751,477.974518 366.441528,475.627716 
z"/>
<path fill="#000000" opacity="1.000000" stroke="none" 
	d="
M442.507080,481.479553 
	C443.466461,493.591461 433.902100,496.707825 427.808350,494.217926 
	C424.605652,492.909332 422.295593,490.632843 421.963135,487.333679 
	C421.498566,482.723328 421.747467,478.038055 421.754883,473.384949 
	C421.757294,471.883301 422.405426,470.811279 424.149902,470.885071 
	C425.955414,470.961456 426.259583,472.265564 426.290192,473.653320 
	C426.359924,476.812775 426.301758,479.975159 426.377045,483.134399 
	C426.461884,486.693573 427.885345,489.404419 431.752106,489.725098 
	C435.741211,490.055908 436.828003,487.216614 437.087463,483.957458 
	C437.416718,479.821472 437.595123,475.673492 437.847015,471.387024 
	C440.862671,469.857941 442.606781,470.588043 442.716522,474.088409 
	C442.789124,476.404022 442.614655,478.727386 442.507080,481.479553 
z"/>
<path fill="#000000" opacity="1.000000" stroke="none" 
	d="
M186.822449,487.636353 
	C186.003571,482.948730 185.832214,478.629608 186.076965,474.298676 
	C186.172134,472.614655 186.356918,470.852844 188.718506,470.827301 
	C191.110565,470.801453 191.270004,472.483795 191.290619,474.232605 
	C191.327896,477.394897 191.234222,480.562256 191.381943,483.718781 
	C191.537613,487.045013 192.933075,489.603668 196.633301,489.839020 
	C200.446167,490.081543 202.045563,487.473236 202.401886,484.260529 
	C202.785370,480.802826 202.593887,477.282166 202.672318,473.789398 
	C202.709198,472.146545 203.091202,470.768433 205.191391,470.918854 
	C207.003357,471.048645 207.238861,472.385651 207.249069,473.761780 
	C207.279938,477.921570 207.630234,482.128845 207.131882,486.229584 
	C206.561646,490.921967 203.741684,494.043396 198.801193,494.894867 
	C193.677216,495.777985 189.799423,493.586121 186.822449,487.636353 
z"/>
<path fill="#000000" opacity="1.000000" stroke="none" 
	d="
M472.417847,473.692932 
	C475.722748,481.207794 473.379700,485.901093 465.864502,486.927979 
	C462.585419,487.376038 459.893890,487.706787 460.180664,491.959686 
	C460.271240,493.303223 459.350586,494.050476 457.953369,494.083313 
	C456.121155,494.126373 455.717102,492.877960 455.709717,491.452576 
	C455.674805,484.677826 455.694122,477.902802 455.694122,470.526825 
	C461.527588,471.448029 467.367889,468.674438 472.417847,473.692932 
M466.219513,481.786621 
	C468.286621,480.759491 469.485748,479.221008 467.957794,477.077393 
	C466.542664,475.092041 464.173553,474.901093 462.095642,475.627075 
	C459.577850,476.506805 460.115570,478.987427 460.614502,480.748291 
	C461.385498,483.469299 463.620239,482.605072 466.219513,481.786621 
z"/>
<path fill="#000000" opacity="1.000000" stroke="none" 
	d="
M245.012650,486.532166 
	C245.393509,489.384155 247.146500,489.656158 249.095749,489.669861 
	C250.920395,489.682678 252.746124,489.703278 254.568817,489.780548 
	C255.852310,489.834961 256.834076,490.378632 256.931549,491.811005 
	C257.049042,493.537140 255.963577,494.205841 254.462997,494.224792 
	C250.482330,494.275146 246.500549,494.255341 242.519333,494.236237 
	C240.368759,494.225891 239.700043,492.903015 239.703979,490.980896 
	C239.715546,485.338715 239.680237,479.696289 239.723511,474.054413 
	C239.735077,472.547241 239.828018,470.961365 241.963959,470.855713 
	C244.335007,470.738434 244.690002,472.487122 244.763504,474.146912 
	C244.939545,478.122986 244.916855,482.107819 245.012650,486.532166 
z"/>
<path fill="#000000" opacity="1.000000" stroke="none" 
	d="
M220.661041,482.991974 
	C220.685608,479.510315 220.687943,476.521454 220.745010,473.533661 
	C220.772537,472.092255 221.194046,470.937592 222.957382,470.824951 
	C224.769714,470.709106 225.961594,471.477966 225.988861,473.278839 
	C226.081741,479.417664 226.072662,485.558868 226.022751,491.698517 
	C226.010437,493.215424 225.122894,494.129028 223.505188,494.183380 
	C221.609085,494.247070 220.785599,493.228088 220.751678,491.453430 
	C220.700928,488.797760 220.689499,486.141327 220.661041,482.991974 
z"/>
<path fill="#000000" opacity="1.000000" stroke="none" 
	d="
M389.987671,277.612427 
	C383.068726,297.765228 364.528778,310.938049 342.257172,311.281647 
	C323.931610,311.564362 305.594360,311.559662 287.268982,311.265808 
	C264.799103,310.905487 246.649384,297.779114 241.461502,278.563843 
	C240.380051,274.558319 239.681168,270.461029 239.682648,266.269287 
	C239.693466,235.774719 239.772614,205.279602 239.582718,174.786194 
	C239.552963,170.009323 240.944016,168.476105 245.787598,168.528381 
	C261.208313,168.694885 261.211426,168.515198 261.212738,183.991821 
	C261.214996,210.820358 261.189545,237.648941 261.226227,264.477448 
	C261.250153,281.972504 270.415924,291.604401 287.742462,291.805298 
	C305.901855,292.015930 324.077118,292.144226 342.225891,291.624817 
	C360.764862,291.094299 373.365326,273.858856 368.817963,256.154877 
	C366.482513,247.062469 360.493805,241.752640 350.985718,241.505661 
	C337.830444,241.163956 324.659546,241.451279 311.495636,241.396774 
	C307.666870,241.380920 306.220428,243.064224 306.320251,246.906464 
	C306.523621,254.733063 306.269653,262.571106 306.443451,270.399109 
	C306.523560,274.006226 305.312531,275.618744 301.558838,275.373657 
	C298.240570,275.157043 294.879303,275.125275 291.567963,275.393677 
	C287.165039,275.750671 285.763245,273.931824 285.803406,269.619446 
	C285.966278,252.124191 285.850739,234.626389 285.850800,217.129532 
	C285.850861,202.798813 285.966980,188.467072 285.816345,174.138031 
	C285.774384,170.145844 286.962189,168.521545 291.198181,168.556015 
	C311.693176,168.722748 332.210175,168.083755 352.680023,168.822006 
	C368.479919,169.391846 379.369293,176.681854 384.334961,189.220459 
	C390.247284,204.149597 387.466248,218.821854 376.821991,229.288666 
	C376.473755,229.631165 376.208649,230.058243 375.479095,230.989014 
	C391.795074,242.691696 393.498108,259.184326 389.987671,277.612427 
M338.491150,188.323700 
	C329.841736,188.327652 321.191406,188.406219 312.543243,188.304016 
	C308.236938,188.253128 306.133087,189.759491 306.298981,194.449142 
	C306.569366,202.090866 306.498566,209.751587 306.329590,217.398941 
	C306.246918,221.140427 307.386230,222.821655 311.433563,222.758972 
	C323.406738,222.573593 335.384705,222.701324 347.360779,222.695282 
	C351.678894,222.693085 355.587555,221.191833 358.990601,218.741516 
	C365.246887,214.236740 366.731232,207.689163 365.497742,200.541962 
	C364.351654,193.901108 359.865387,190.333710 353.396179,188.898407 
	C348.767975,187.871597 344.117615,188.588669 338.491150,188.323700 
z"/>
</svg>